/* XPM */
static char * maximize_pressed_xpm[] = {
"36 36 5 1",
" 	c #000000",
".	c #000044",
"+	c #000088",
"@	c #0000EE",
"#	c #FFFFFF",
"                                    ",
" .................................+ ",
" ................................++ ",
" ...............................+++ ",
" ...@@@@@@@@@@@@@@@@@@@@@@@@@@@@+++ ",
" ...@@@@@@@@@@@@@@@@@@@@@@@@@@@@+++ ",
" ...@@@@@@@@@@@@@@@@@@@@@@@@@@@@+++ ",
" ...@@@@@@@@@@@@@@@@@@@@@@@@@@@@+++ ",
" ...@@@@@@@@@@@@@@@@@@@@@@@@@@@@+++ ",
" ...@@@@@##################@@@@@+++ ",
" ...@@@@@##################@@@@@+++ ",
" ...@@@@@##################@@@@@+++ ",
" ...@@@@@##################@@@@@+++ ",
" ...@@@@@##################@@@@@+++ ",
" ...@@@@@##################@@@@@+++ ",
" ...@@@@@###@@@@@@@@@@@@###@@@@@+++ ",
" ...@@@@@###@@@@@@@@@@@@###@@@@@+++ ",
" ...@@@@@###@@@@@@@@@@@@###@@@@@+++ ",
" ...@@@@@###@@@@@@@@@@@@###@@@@@+++ ",
" ...@@@@@###@@@@@@@@@@@@###@@@@@+++ ",
" ...@@@@@###@@@@@@@@@@@@###@@@@@+++ ",
" ...@@@@@###@@@@@@@@@@@@###@@@@@+++ ",
" ...@@@@@###@@@@@@@@@@@@###@@@@@+++ ",
" ...@@@@@###@@@@@@@@@@@@###@@@@@+++ ",
" ...@@@@@##################@@@@@+++ ",
" ...@@@@@##################@@@@@+++ ",
" ...@@@@@##################@@@@@+++ ",
" ...@@@@@@@@@@@@@@@@@@@@@@@@@@@@+++ ",
" ...@@@@@@@@@@@@@@@@@@@@@@@@@@@@+++ ",
" ...@@@@@@@@@@@@@@@@@@@@@@@@@@@@+++ ",
" ...@@@@@@@@@@@@@@@@@@@@@@@@@@@@+++ ",
" ...@@@@@@@@@@@@@@@@@@@@@@@@@@@@+++ ",
" ..++++++++++++++++++++++++++++++++ ",
" .+++++++++++++++++++++++++++++++++ ",
" ++++++++++++++++++++++++++++++++++ ",
"                                    "};
