/* XPM */
static char * shade_active_xpm[] = {
"32 32 5 1",
" 	c #000000",
".	c #0000EE",
"+	c #000088",
"@	c #000044",
"#	c #FFFFFF",
"                                ",
"                                ",
"  ............................  ",
"  .++++++++++++++++++++++++++@  ",
"  .++++++++++++++++++++++++++@  ",
"  .++++++++++++++++++++++++++@  ",
"  .++++++++++++++++++++++++++@  ",
"  .++++++++++++++++++++++++++@  ",
"  .++++++++++++++++++++++++++@  ",
"  .++++++##############++++++@  ",
"  .++++++##############++++++@  ",
"  .++++++##############++++++@  ",
"  .++++++##############++++++@  ",
"  .++++++##############++++++@  ",
"  .++++++++++++++++++++++++++@  ",
"  .++++++++++++++++++++++++++@  ",
"  .++++++++++++++++++++++++++@  ",
"  .++++++++++++++++++++++++++@  ",
"  .++++++++++++++++++++++++++@  ",
"  .++++++++++++++++++++++++++@  ",
"  .++++++++++++++++++++++++++@  ",
"  .++++++++++++++++++++++++++@  ",
"  .++++++++++++++++++++++++++@  ",
"  .++++++++++++++++++++++++++@  ",
"  .++++++++++++++++++++++++++@  ",
"  .++++++++++++++++++++++++++@  ",
"  .++++++++++++++++++++++++++@  ",
"  .++++++++++++++++++++++++++@  ",
"  .++++++++++++++++++++++++++@  ",
"  .@@@@@@@@@@@@@@@@@@@@@@@@@@@  ",
"                                ",
"                                "};
