/* XPM */
static char * title_2_inactive_xpm[] = {
"8 42 4 1",
" 	c #000000",
".	c #FFFFFF",
"+	c #BFBFBF",
"@	c #8F8F8F",
"        ",
"        ",
"........",
"........",
"..++++++",
"..++++++",
"..++++++",
"..++++++",
"..++++++",
"..++++++",
"..++++++",
"..++++++",
"..++++++",
"..++++++",
"..++++++",
"..++++++",
"..++++++",
"..++++++",
"..++++++",
"..++++++",
"..++++++",
"..++++++",
"..++++++",
"..++++++",
"..++++++",
"..++++++",
"..++++++",
"..++++++",
"..++++++",
"..++++++",
"..++++++",
"..++++++",
"..++++++",
"..++++++",
"..++++++",
"..++++++",
"..++++++",
"..++++++",
"..@@@@@@",
"..@@@@@@",
"        ",
"        "};
