/* XPM */
static char * bottom_inactive_xpm[] = {
"38 14 4 1",
" 	c #000000",
".	c #FFFFFF s active_text_color",
"+	c #BFBFBF s active_color_2",
"@	c #8F8F8F s active_shadow_2",
"                                      ",
"......................................",
"......................................",
"......................................",
"++++++++++++++++++++++++++++++++++++++",
"++++++++++++++++++++++++++++++++++++++",
"++++++++++++++++++++++++++++++++++++++",
"++++++++++++++++++++++++++++++++++++++",
"++++++++++++++++++++++++++++++++++++++",
"++++++++++++++++++++++++++++++++++++++",
"@@@@@@@@@@@@@@@@@@@@@@@@@@@@@@@@@@@@@@",
"@@@@@@@@@@@@@@@@@@@@@@@@@@@@@@@@@@@@@@",
"@@@@@@@@@@@@@@@@@@@@@@@@@@@@@@@@@@@@@@",
"                                      "};
