/* XPM */
static char * bottom_active_xpm[] = {
"19 7 4 1",
" 	c #000000",
".	c #FFFFFF s active_hilight_2",
"+	c #BFBFBF s active_color_2",
"@	c #8F8F8F s active_shadow_2",
"                   ",
"...................",
"+++++++++++++++++++",
"+++++++++++++++++++",
"+++++++++++++++++++",
"@@@@@@@@@@@@@@@@@@@",
"                   "};
