/* XPM */
static char * bottom_inactive_xpm[] = {
"38 14 4 1",
" 	c #000000",
".	c #FFFFFF",
"+	c #BFBFBF",
"@	c #8F8F8F",
"                                      ",
"......................................",
"......................................",
"......................................",
"++++++++++++++++++++++++++++++++++++++",
"++++++++++++++++++++++++++++++++++++++",
"++++++++++++++++++++++++++++++++++++++",
"++++++++++++++++++++++++++++++++++++++",
"++++++++++++++++++++++++++++++++++++++",
"++++++++++++++++++++++++++++++++++++++",
"@@@@@@@@@@@@@@@@@@@@@@@@@@@@@@@@@@@@@@",
"@@@@@@@@@@@@@@@@@@@@@@@@@@@@@@@@@@@@@@",
"@@@@@@@@@@@@@@@@@@@@@@@@@@@@@@@@@@@@@@",
"                                      "};
