/* XPM */
static char * bottom_right_active_xpm[] = {
"26 8 4 1",
" 	c #000000",
".	c #FFFFFF",
"+	c #BFBFBF",
"@	c #8F8F8F",
"                          ",
".. ...................... ",
"+@ ..+++++++++++++++++++@ ",
"+@ ..+++++++++++++++++++@ ",
"+@ ..+++++++++++++++++++@ ",
"+@ ..+++++++++++++++++++@ ",
"@@ .@@@@@@@@@@@@@@@@@@@@@ ",
"                          "};
