/* XPM */
static char * bottom_left_inactive_xpm[] = {
"46 14 4 1",
" 	c #000000",
".	c #FFFFFF",
"+	c #BFBFBF",
"@	c #8F8F8F",
"                                              ",
"                                              ",
"  ......................................  ....",
"  ......................................  ....",
"  ..++++++++++++++++++++++++++++++++++@@  ..++",
"  ..++++++++++++++++++++++++++++++++++@@  ..++",
"  ..++++++++++++++++++++++++++++++++++@@  ..++",
"  ..++++++++++++++++++++++++++++++++++@@  ..++",
"  ..++++++++++++++++++++++++++++++++++@@  ..++",
"  ..++++++++++++++++++++++++++++++++++@@  ..++",
"  ..@@@@@@@@@@@@@@@@@@@@@@@@@@@@@@@@@@@@  ..@@",
"  ..@@@@@@@@@@@@@@@@@@@@@@@@@@@@@@@@@@@@  ..@@",
"                                              ",
"                                              "};
