/* XPM */
static char * bottom_active_xpm[] = {
"38 14 4 1",
" 	c #000000",
".	c #FFFFFF s active_text_color",
"+	c #BFBFBF",
"@	c #8F8F8F",
"                                      ",
"......................................",
"......................................",
"......................................",
"++++++++++++++++++++++++++++++++++++++",
"++++++++++++++++++++++++++++++++++++++",
"++++++++++++++++++++++++++++++++++++++",
"++++++++++++++++++++++++++++++++++++++",
"++++++++++++++++++++++++++++++++++++++",
"++++++++++++++++++++++++++++++++++++++",
"@@@@@@@@@@@@@@@@@@@@@@@@@@@@@@@@@@@@@@",
"@@@@@@@@@@@@@@@@@@@@@@@@@@@@@@@@@@@@@@",
"@@@@@@@@@@@@@@@@@@@@@@@@@@@@@@@@@@@@@@",
"                                      "};
