/* XPM */
static char * title_4_active_xpm[] = {
"7 36 4 1",
" 	c #000000",
".	c #0000EE s active_hilight_1",
"+	c #000044 s active_shadow_1",
"@	c #000088 s active_color_1",
"       ",
"...... ",
".....+ ",
"@@@@++ ",
"@@@@++ ",
"@@@@++ ",
"@@@@++ ",
"@@@@++ ",
"@@@@++ ",
"@@@@++ ",
"@@@@++ ",
"@@@@++ ",
"@@@@++ ",
"@@@@++ ",
"@@@@++ ",
"@@@@++ ",
"@@@@++ ",
"@@@@++ ",
"@@@@++ ",
"@@@@++ ",
"@@@@++ ",
"@@@@++ ",
"@@@@++ ",
"@@@@++ ",
"@@@@++ ",
"@@@@++ ",
"@@@@++ ",
"@@@@++ ",
"@@@@++ ",
"@@@@++ ",
"@@@@++ ",
"@@@@++ ",
"@@@@++ ",
"++++++ ",
"++++++ ",
"       "};
