/* XPM */
static char * maximize_inactive_xpm[] = {
"42 42 5 1",
" 	c #000000",
".	c #FFFFFF",
"+	c #BFBFBF",
"@	c #8F8F8F",
"#	c #888888",
"                                          ",
"                                          ",
"  ......................................  ",
"  ......................................  ",
"  ..++++++++++++++++++++++++++++++++++@@  ",
"  ..++++++++++++++++++++++++++++++++++@@  ",
"  ..++++++++++++++++++++++++++++++++++@@  ",
"  ..++++++++++++++++++++++++++++++++++@@  ",
"  ..++++++++++++++++++++++++++++++++++@@  ",
"  ..++++++++++++++++++++++++++++++++++@@  ",
"  ..++++++++++++++++++++++++++++++++++@@  ",
"  ..++++++++++++++++++++++++++++++++++@@  ",
"  ..++++++++##################++++++++@@  ",
"  ..++++++++##################++++++++@@  ",
"  ..++++++++##################++++++++@@  ",
"  ..++++++++##################++++++++@@  ",
"  ..++++++++##################++++++++@@  ",
"  ..++++++++##################++++++++@@  ",
"  ..++++++++##++++++++++++++##++++++++@@  ",
"  ..++++++++##++++++++++++++##++++++++@@  ",
"  ..++++++++##++++++++++++++##++++++++@@  ",
"  ..++++++++##++++++++++++++##++++++++@@  ",
"  ..++++++++##++++++++++++++##++++++++@@  ",
"  ..++++++++##++++++++++++++##++++++++@@  ",
"  ..++++++++##++++++++++++++##++++++++@@  ",
"  ..++++++++##++++++++++++++##++++++++@@  ",
"  ..++++++++##++++++++++++++##++++++++@@  ",
"  ..++++++++##++++++++++++++##++++++++@@  ",
"  ..++++++++##################++++++++@@  ",
"  ..++++++++##################++++++++@@  ",
"  ..++++++++++++++++++++++++++++++++++@@  ",
"  ..++++++++++++++++++++++++++++++++++@@  ",
"  ..++++++++++++++++++++++++++++++++++@@  ",
"  ..++++++++++++++++++++++++++++++++++@@  ",
"  ..++++++++++++++++++++++++++++++++++@@  ",
"  ..++++++++++++++++++++++++++++++++++@@  ",
"  ..++++++++++++++++++++++++++++++++++@@  ",
"  ..++++++++++++++++++++++++++++++++++@@  ",
"  ..@@@@@@@@@@@@@@@@@@@@@@@@@@@@@@@@@@@@  ",
"  ..@@@@@@@@@@@@@@@@@@@@@@@@@@@@@@@@@@@@  ",
"                                          ",
"                                          "};
