/* XPM */
static char * maximize_active_xpm[] = {
"42 42 5 1",
" 	c #000000",
".	c #0000EE",
"+	c #000088",
"@	c #000044",
"#	c #FFFFFF",
"                                          ",
"                                          ",
"  ......................................  ",
"  ......................................  ",
"  ..++++++++++++++++++++++++++++++++++@@  ",
"  ..++++++++++++++++++++++++++++++++++@@  ",
"  ..++++++++++++++++++++++++++++++++++@@  ",
"  ..++++++++++++++++++++++++++++++++++@@  ",
"  ..++++++++++++++++++++++++++++++++++@@  ",
"  ..++++++++++++++++++++++++++++++++++@@  ",
"  ..++++++++++++++++++++++++++++++++++@@  ",
"  ..++++++++++++++++++++++++++++++++++@@  ",
"  ..++++++++##################++++++++@@  ",
"  ..++++++++##################++++++++@@  ",
"  ..++++++++##################++++++++@@  ",
"  ..++++++++##################++++++++@@  ",
"  ..++++++++##################++++++++@@  ",
"  ..++++++++##################++++++++@@  ",
"  ..++++++++##++++++++++++++##++++++++@@  ",
"  ..++++++++##++++++++++++++##++++++++@@  ",
"  ..++++++++##++++++++++++++##++++++++@@  ",
"  ..++++++++##++++++++++++++##++++++++@@  ",
"  ..++++++++##++++++++++++++##++++++++@@  ",
"  ..++++++++##++++++++++++++##++++++++@@  ",
"  ..++++++++##++++++++++++++##++++++++@@  ",
"  ..++++++++##++++++++++++++##++++++++@@  ",
"  ..++++++++##++++++++++++++##++++++++@@  ",
"  ..++++++++##++++++++++++++##++++++++@@  ",
"  ..++++++++##################++++++++@@  ",
"  ..++++++++##################++++++++@@  ",
"  ..++++++++++++++++++++++++++++++++++@@  ",
"  ..++++++++++++++++++++++++++++++++++@@  ",
"  ..++++++++++++++++++++++++++++++++++@@  ",
"  ..++++++++++++++++++++++++++++++++++@@  ",
"  ..++++++++++++++++++++++++++++++++++@@  ",
"  ..++++++++++++++++++++++++++++++++++@@  ",
"  ..++++++++++++++++++++++++++++++++++@@  ",
"  ..++++++++++++++++++++++++++++++++++@@  ",
"  ..@@@@@@@@@@@@@@@@@@@@@@@@@@@@@@@@@@@@  ",
"  ..@@@@@@@@@@@@@@@@@@@@@@@@@@@@@@@@@@@@  ",
"                                          ",
"                                          "};
