/* XPM */
static char * menu_pressed_xpm[] = {
"42 42 2 1",
" 	c #000000",
".	c #FFFFFF",
"                                          ",
"                                          ",
"  ......................................  ",
"  ......................................  ",
"  ......................................  ",
"  ......................................  ",
"  ......................................  ",
"  ......................................  ",
"  ......................................  ",
"  ......................................  ",
"  ......................................  ",
"  ......................................  ",
"  ......................................  ",
"  ......................................  ",
"  ......................................  ",
"  ......................................  ",
"  ......................................  ",
"  ......................................  ",
"  ..........                  ..........  ",
"  ..........                  ..........  ",
"  ..........  ..............  ..........  ",
"  ..........  ..............  ..........  ",
"  ..........                  ..........  ",
"  ..........                  ..........  ",
"  ......................................  ",
"  ......................................  ",
"  ......................................  ",
"  ......................................  ",
"  ......................................  ",
"  ......................................  ",
"  ......................................  ",
"  ......................................  ",
"  ......................................  ",
"  ......................................  ",
"  ......................................  ",
"  ......................................  ",
"  ......................................  ",
"  ......................................  ",
"  ......................................  ",
"  ......................................  ",
"                                          ",
"                                          "};
