/* XPM */
static char * title_4_active_xpm[] = {
"8 42 4 1",
" 	c #000000",
".	c #0000EE",
"+	c #000088",
"@	c #000044",
"        ",
"        ",
"........",
"........",
"++++++@@",
"++++++@@",
"++++++@@",
"++++++@@",
"++++++@@",
"++++++@@",
"++++++@@",
"++++++@@",
"++++++@@",
"++++++@@",
"++++++@@",
"++++++@@",
"++++++@@",
"++++++@@",
"++++++@@",
"++++++@@",
"++++++@@",
"++++++@@",
"++++++@@",
"++++++@@",
"++++++@@",
"++++++@@",
"++++++@@",
"++++++@@",
"++++++@@",
"++++++@@",
"++++++@@",
"++++++@@",
"++++++@@",
"++++++@@",
"++++++@@",
"++++++@@",
"++++++@@",
"++++++@@",
"@@@@@@@@",
"@@@@@@@@",
"        ",
"        "};
