/* XPM */
static char *dummy[]={
"21 24 5 1",
". c #000000",
"c c #999999",
"b c #cccccc",
"# c #ff9900",
"a c #ffffff",
".....################",
"aaaa#################",
"bbbb#######bbbbbbbb##",
"bbbbb######bbbbbbbbbb",
"bbbbb######bbbbbbbbbb",
"bbbbb######bbbbbbbbbb",
"bbbbb######bbbbbbbbbb",
"bbbbb######bbbbbbbbbb",
"bbbbb############bbbb",
"bbbb###############bb",
"bbbb#######bbbb####bb",
"bbbb#######bbbb######",
"bbbb######bbbbb######",
"bbbbbbbbbbbbbbb######",
"bbbbbbbbbbbbbbb######",
"bbbbbbbbbbbbbbbb#####",
"######bbbbbbbbbb#####",
"######bbbbbbbbb#####b",
"######bbbbbbbbb#####b",
"####bbbbbbbbbb####bbb",
"####bbbbbbbbb####bbbb",
"#####bbbbbb#####bbbbb",
"###############cccccc",
"#############........"};
