/* XPM */
static char *dummy[]={
"21 24 12 1",
". c #000000",
"# c #000033",
"a c #000099",
"b c #0000cc",
"c c #0000ff",
"f c #3333ff",
"h c #6666ff",
"j c #999999",
"i c #9999cc",
"g c #cccccc",
"e c #ccccff",
"d c #ffffff",
"......#abccba#.......",
"ddddefccccccccfeddddd",
"ggghccfhgggghfcchgggg",
"gghcciggggcccgicchggg",
"ghcfggggcccccgggfchgg",
"gccggccccccccggggccgg",
"fchggccccccccgggghcfg",
"ccgggccccccccgggggccg",
"chggggggcccccggggghch",
"ciggggggccccggggggicf",
"cgggggggccccgggggggcf",
"cgggggggccccgggggggcc",
"cgggggggccccgggggggcc",
"cgggggggccccgggggggcf",
"ciggggggcccccgggggicf",
"chgggggccccccggggghch",
"ccgggggccccccgggggccg",
"fchggggccccccccgghcfg",
"gccgggcccccccccggccgg",
"ghcfggcccgggggggfchgg",
"gghcciggggggggicchggg",
"ggghccfhgggghfcchgggg",
"jjjjifccccccccfijjjjj",
"......#abccba#......."};
