/* XPM */
static char *dummy[]={
"21 24 6 1",
". c #000000",
"# c #00ff00",
"c c #999999",
"d c #99cc66",
"b c #cccccc",
"a c #ffffff",
"..........###......##",
"aaaaaaaa#####aaaaaa##",
"bbbbbbb#####bbbbbbb##",
"ccccc#######ccccccc##",
"....####.###.......##",
"dd#####dd##dddddddd##",
"d#####ddd##dddddddd##",
"d###ddddd##dddddddd##",
"dddddddd###dddddddddd",
"dddddddd##ddddddddddd",
"dddddddd########ddddd",
"#dddddd##########dddd",
"#dddddd####ddd###dddd",
"#dddddddddddddd##dddd",
"#dddddddddddddd##dddd",
"#dddddddddddddd##dddd",
"#dddddddddddddd##dddd",
"#dddddddddddddd##dddd",
"#ddd##ddddddddd##dddd",
"....##.........##....",
"aaaa##aaaaaaaa###aaaa",
"bbbb###bbbbbb####bbbb",
"cccc############ccccc",
".....##########......"};
