/* XPM */
static char *dummy[]={
"18 24 6 1",
". c #000000",
"# c #00ffff",
"c c #999999",
"d c #99cc66",
"b c #cccccc",
"a c #ffffff",
"......#####.......",
"aaaa#########aaaaa",
"bbbb##########bbbb",
"bb#######bcc##cccc",
"b#####ccbbc.##....",
"####abcabbc.##dddd",
"###bbbbbbbc.##dddd",
"##bccbccbbc###dddd",
"##bcabcab#####dddd",
"##bbbbb#####dddddd",
"bbbc#######.dddddd",
"bb######bbc.dddddd",
"b#####bbbbc.dddddd",
"b###cbccbbc.dddddd",
"b##cabcabbc.dddddd",
"b##bbbbbbbc.dddddd",
"b##bbbbbbbc.dddddd",
"b##ccbccbbc.dd####",
"b##cabcabbc#######",
"b##bbbbbb#########",
"b##bbbb######aaaaa",
"b##########bbbbbbb",
"c#########cccccccc",
".###.............."};
