/* XPM */
static char *dummy[]={
"6 24 15 1",
". c #000000",
"l c #006600",
"m c #009900",
"i c #330033",
"k c #333333",
"# c #660066",
"j c #663366",
"a c #990099",
"f c #993399",
"h c #996699",
"c c #cc66cc",
"d c #cc99cc",
"g c #cccccc",
"e c #ffccff",
"b c #ffffff",
"....#a",
".bbcaa",
".bdaaa",
".eaaaa",
".faaaa",
"#aaaaa",
"aaaaaf",
"aaaaag",
"aaaadg",
"aaahgg",
"aafggg",
"afgggg",
"ibgggg",
".bgggg",
".bgggg",
".bgggh",
".bggfa",
".bgfaa",
".daaaa",
"iaaaaa",
"aaa#jk",
"aa#lmm",
"aajmmm",
"aajmmm"};
