/* XPM */
static char * bottom_left_inactive_xpm[] = {
"46 14 4 1",
" 	c #000000",
".	c #FFFFFF s inactive_hilight_2",
"+	c #8F8F8F s inactive_shadow_2",
"@	c #BFBFBF s inactive_color_2",
"                                              ",
" ....................................... .....",
" ....................................... .....",
" ......................................+ .....",
" ...@@@@@@@@@@@@@@@@@@@@@@@@@@@@@@@@@@++ ...@@",
" ...@@@@@@@@@@@@@@@@@@@@@@@@@@@@@@@@@@++ ...@@",
" ...@@@@@@@@@@@@@@@@@@@@@@@@@@@@@@@@@@++ ...@@",
" ...@@@@@@@@@@@@@@@@@@@@@@@@@@@@@@@@@@++ ...@@",
" ...@@@@@@@@@@@@@@@@@@@@@@@@@@@@@@@@@@++ ...@@",
" ...@@@@@@@@@@@@@@@@@@@@@@@@@@@@@@@@@@++ ...@@",
" ...++++++++++++++++++++++++++++++++++++ ...++",
" ..+++++++++++++++++++++++++++++++++++++ ..+++",
" .++++++++++++++++++++++++++++++++++++++ .++++",
"                                              "};
