/* XPM */
static char * bottom_right_inactive_xpm[] = {
"46 14 4 1",
" 	c #000000",
".	c #FFFFFF s inactive_text_color",
"+	c #BFBFBF",
"@	c #8F8F8F",
"                                              ",
"                                              ",
"....  ......................................  ",
"....  ......................................  ",
"++@@  ..++++++++++++++++++++++++++++++++++@@  ",
"++@@  ..++++++++++++++++++++++++++++++++++@@  ",
"++@@  ..++++++++++++++++++++++++++++++++++@@  ",
"++@@  ..++++++++++++++++++++++++++++++++++@@  ",
"++@@  ..++++++++++++++++++++++++++++++++++@@  ",
"++@@  ..++++++++++++++++++++++++++++++++++@@  ",
"@@@@  ..@@@@@@@@@@@@@@@@@@@@@@@@@@@@@@@@@@@@  ",
"@@@@  ..@@@@@@@@@@@@@@@@@@@@@@@@@@@@@@@@@@@@  ",
"                                              ",
"                                              "};
