/* XPM */
static char * close_inactive_xpm[] = {
"36 36 5 1",
" 	c #000000",
".	c #0000EE s inactive_"hilight_1",
"+	c #000088 s inactive_"color_1",
"@	c #000044 s inactive_"shadow_1",
"#	c #FFFFFF s inactive_"text_color",
"                                    ",
"                                    ",
"  ................................  ",
"  .++++++++++++++++++++++++++++++@  ",
"  .++++++++++++++++++++++++++++++@  ",
"  .++++++++++++++++++++++++++++++@  ",
"  .++++++++++++++++++++++++++++++@  ",
"  .++++++++++++++++++++++++++++++@  ",
"  .++++++++++++++++++++++++++++++@  ",
"  .++++++++++++++++++++++++++++++@  ",
"  .+++++++####++++++++####+++++++@  ",
"  .+++++++####++++++++####+++++++@  ",
"  .+++++++#####++++++#####+++++++@  ",
"  .+++++++######++++######+++++++@  ",
"  .+++++++++#####++#####+++++++++@  ",
"  .++++++++++##########++++++++++@  ",
"  .+++++++++++########+++++++++++@  ",
"  .++++++++++++######++++++++++++@  ",
"  .++++++++++++######++++++++++++@  ",
"  .+++++++++++########+++++++++++@  ",
"  .++++++++++##########++++++++++@  ",
"  .+++++++++#####++#####+++++++++@  ",
"  .+++++++######++++######+++++++@  ",
"  .+++++++#####++++++#####+++++++@  ",
"  .+++++++####++++++++####+++++++@  ",
"  .+++++++####++++++++####+++++++@  ",
"  .++++++++++++++++++++++++++++++@  ",
"  .++++++++++++++++++++++++++++++@  ",
"  .++++++++++++++++++++++++++++++@  ",
"  .++++++++++++++++++++++++++++++@  ",
"  .++++++++++++++++++++++++++++++@  ",
"  .++++++++++++++++++++++++++++++@  ",
"  .++++++++++++++++++++++++++++++@  ",
"  .@@@@@@@@@@@@@@@@@@@@@@@@@@@@@@@  ",
"                                    ",
"                                    "};
