/* XPM */
static char * title_2_inactive_xpm[] = {
"7 36 4 1",
" 	c #000000",
".	c #0000EE s inactive_hilight_1",
"+	c #000088 s inactive_color_1",
"@	c #000044 s inactive_shadow_1",
"       ",
".......",
".......",
"..+++++",
"..+++++",
"..+++++",
"..+++++",
"..+++++",
"..+++++",
"..+++++",
"..+++++",
"..+++++",
"..+++++",
"..+++++",
"..+++++",
"..+++++",
"..+++++",
"..+++++",
"..+++++",
"..+++++",
"..+++++",
"..+++++",
"..+++++",
"..+++++",
"..+++++",
"..+++++",
"..+++++",
"..+++++",
"..+++++",
"..+++++",
"..+++++",
"..+++++",
"..+++++",
"..@@@@@",
".@@@@@@",
"       "};
