/* XPM */
static char * title_4_inactive_xpm[] = {
"7 36 4 1",
" 	c #000000",
".	c #0000EE s inactive_"hilight_1",
"+	c #000088 s inactive_"color_1",
"@	c #000044 s inactive_"shadow_1",
"       ",
"       ",
".......",
"+++++@@",
"+++++@@",
"+++++@@",
"+++++@@",
"+++++@@",
"+++++@@",
"+++++@@",
"+++++@@",
"+++++@@",
"+++++@@",
"+++++@@",
"+++++@@",
"+++++@@",
"+++++@@",
"+++++@@",
"+++++@@",
"+++++@@",
"+++++@@",
"+++++@@",
"+++++@@",
"+++++@@",
"+++++@@",
"+++++@@",
"+++++@@",
"+++++@@",
"+++++@@",
"+++++@@",
"+++++@@",
"+++++@@",
"+++++@@",
"@@@@@@@",
"       ",
"       "};
