/* XPM */
static char *dummy[]={
"5 5 5 1",
"c c #990099",
". c #9999ff",
"a c #99ff99",
"b c #ff9999",
"# c #ffff99",
".#abc",
".#abb",
".#aaa",
".####",
"....."};
