/* XPM */
static char *dummy[]={
"14 14 66 2",
"Qt c #000000",
".e c #0000ff",
".a c #003333",
".r c #0066ff",
".A c #009900",
".d c #0099ff",
".g c #00cc00",
".B c #00cc33",
".# c #00cccc",
".b c #00ccff",
".o c #00ff00",
".F c #00ff33",
".G c #00ffcc",
".c c #00ffff",
".3 c #330000",
".m c #3300ff",
".R c #333300",
".U c #3333cc",
".l c #3366ff",
".H c #3399ff",
".L c #33cc66",
".Q c #33ff00",
".h c #33ff33",
".w c #33ff99",
".q c #33ffcc",
".j c #33ffff",
".4 c #660000",
".x c #6600ff",
".C c #666600",
".E c #669900",
".K c #66cc00",
".p c #66ff66",
".5 c #990000",
".s c #9900ff",
".8 c #999999",
".v c #99cc99",
".k c #99ffff",
".6 c #cc0000",
".0 c #cc00cc",
".n c #cc00ff",
"## c #cc3333",
".I c #cc6600",
"#. c #cc6666",
".O c #cc9900",
".9 c #cc9999",
".t c #cccc00",
".7 c #cccccc",
".P c #ccff00",
".z c #ccff66",
".i c #ccffcc",
".V c #ff0000",
".f c #ff00ff",
".2 c #ff3300",
".W c #ff3333",
".1 c #ff33ff",
".N c #ff6600",
".X c #ff6666",
".M c #ff9900",
".S c #ff9933",
".Y c #ff9966",
".Z c #ffcc00",
".T c #ffcc33",
".J c #ffcc66",
".y c #ffff00",
".D c #ffff33",
".u c #ffff99",
"QtQtQt.#.#.a.b.c.dQt.e.e.f.f",
".g.h.i.j.c.c.k.c.c.l.m.e.n.f",
".g.o.o.p.j.c.c.j.c.b.m.e.n.f",
"Qt.p.o.o.g.q.c.c.c.c.r.e.s.f",
".t.u.v.g.o.o.w.c.c.c.c.e.x.f",
".y.y.y.z.A.o.o.B.c.c.b.e.x.f",
".C.D.y.y.y.E.g.o.F.G.H.e.m.f",
".I.J.J.D.y.y.y.K.o.o.L.e.m.f",
".M.M.M.N.I.O.y.y.P.Q.h.e.e.f",
".R.J.S.M.M.M.M.T.y.y.y.U.m.f",
".V.W.X.X.Y.S.M.M.M.Z.y.Z.0.1",
".V.V.V.V.V.V.V.2.N.N.M.M.M.S",
"Qt.3.4.5.6.6.V.V.V.V.2.2.N.N",
".7.8.8.8.8.8.9.9#.#.##.W.V.W"};
