/* XPM */
static char *dummy[]={
"5 16 6 1",
"c c #0000ff",
"b c #00ff00",
"d c #990099",
"# c #ff9900",
"a c #ffff00",
". c #ffffff",
".....",
"#####",
"#####",
"#####",
"aaaaa",
"aaaaa",
"aaaaa",
"bbbbb",
"bbbbb",
"bbbbb",
"ccccc",
"ccccc",
"ccccc",
"ddddd",
"ddddd",
"ddddd"};
