/* XPM */
static char *dummy[]={
"18 24 6 1",
". c #000000",
"c c #999999",
"d c #99cc66",
"b c #cccccc",
"# c #ffff00",
"a c #ffffff",
"..........###.....",
"aaaaaaaaa####aaaaa",
"bbbbbbbbb####bbbbb",
"cccccccc######bbbb",
".......a##c###cbbb",
"dddddd.###c###abbb",
"dddddd.###b###bbbb",
"dddddd###bc###cbbb",
"ddddd####bc###abbb",
"dddd####bbb###bbbb",
"dd#####abbc###cbbb",
"#####d.abbc###abbb",
"##############bbbb",
"################bb",
"dddd##############",
"dddddd.abbb#######",
"dddddd.abbb###bb##",
"dddddd.abbc###cbbb",
"dddddd.abbc###abbb",
".......abbb###bbbb",
"aaaaaaaabbb###bbbb",
"bbbbbbbbbbbb##bbbb",
"cccccccccccc###ccc",
"............###..."};
