/* XPM */
static char *dummy[]={
"6 24 15 1",
"a c #000000",
"# c #330000",
"i c #660000",
"g c #990000",
"l c #999999",
"d c #cc0000",
"m c #cc3333",
"k c #cc6666",
"j c #cc9999",
"f c #cccccc",
". c #ff0000",
"h c #ff3333",
"e c #ff6666",
"b c #ff9999",
"c c #ffffff",
".#a#..",
".bcb.d",
".efe.g",
".hfh.i",
"..f..#",
"..j..a",
"h.e.ha",
"e.h.ka",
"j...ka",
"f...ja",
"fh..la",
"fh.hla",
"fh.hla",
"fh.hla",
"f...ja",
"f...ja",
"j...ka",
"e.h.ma",
"h.e..a",
"..f..a",
"..fh.#",
".hfe.i",
".efb.g",
".klf.d"};
