/* XPM */
static char * bottom_left_active_xpm[] = {
"8 8 4 1",
" 	c #000000 s active_border_color",
".	c #FFFFFF s active_hilight_2",
"+	c #D8D8D8 s active_color_2",
"@	c #B2B2B2",
" ..++@@ ",
" ..++@@.",
" ..++@..",
" ..+++++",
" ..+++++",
" ..@@@@@",
" ..@@@@@",
"        "};
