/* XPM */
static char * bottom_active_xpm[] = {
"32 10 4 1",
" 	c #000000",
".	c #FFFFFF",
"+	c #D8D8D8",
"@	c #B2B2B2",
"                                ",
"                                ",
"................................",
"................................",
"++++++++++++++++++++++++++++++++",
"++++++++++++++++++++++++++++++++",
"@@@@@@@@@@@@@@@@@@@@@@@@@@@@@@@@",
"@@@@@@@@@@@@@@@@@@@@@@@@@@@@@@@@",
"                                ",
"                                "};
