/* XPM */
static char * bottom_right_active_xpm[] = {
"24 24 5 1",
" 	c None",
".	c #000000",
"+	c #FFFFFF",
"@	c #D8D8D8",
"#	c #B2B2B2",
"              ..++@@##..",
"              ..++@@##..",
"            ..++@@@@##..",
"            ..++@@@@##..",
"          ..++@@@@@@##..",
"          ..++@@@@@@##..",
"        ..++@@@@@@@@##..",
"        ..++@@@@@@@@##..",
"      ..++@@@@####@@##..",
"      ..++@@@@####@@##..",
"    ..++@@@@@@##++@@##..",
"    ..++@@@@@@##++@@##..",
"  ..++@@@@@@@@@@@@@@##..",
"  ..++@@@@@@@@@@@@@@##..",
"..++@@@@####@@####@@##..",
"..++@@@@####@@####@@##..",
"++@@@@@@##++@@##++@@##..",
"++@@@@@@##++@@##++@@##..",
"@@@@@@@@@@@@@@@@@@@@##..",
"@@@@@@@@@@@@@@@@@@@@##..",
"######################..",
"######################..",
"........................",
"........................"};
