/* XPM */
static char * bottom_left_inactive_xpm[] = {
"10 10 4 1",
" 	c #000000",
".	c #FFFFFF",
"+	c #D8D8D8",
"@	c #B2B2B2",
"  ..++@@  ",
"  ..++@@  ",
"  ..++@@..",
"  ..++@@..",
"  ..++++++",
"  ..++++++",
"  ..@@@@@@",
"  ..@@@@@@",
"          ",
"          "};
