/* XPM */
static char * bottom_right_active_xpm[] = {
"16 16 5 1",
" 	c None",
".	c #000000 s active_border_color",
"+	c #FFFFFF s active_hilight_2",
"@	c #D8D8D8",
"#	c #B2B2B2",
"         ..+@##.",
"        .++@@##.",
"        .++@@##.",
"       .+@@@@##.",
"     ..+@@@@@##.",
"    .++@@###@##.",
"    .++@@###@##.",
"   .+@@@@##+@##.",
" ..+@@@@@@@@@##.",
".++@@###@###@##.",
".++@@###@###@##.",
"+@@@@##+@##+@##.",
"@@@@@@@@@@@@@##.",
"###############.",
"###############.",
"................"};
