/* XPM */
static char * close_pressed_xpm[] = {
"28 28 4 1",
" 	c #D8D8D8",
".	c #000000 s active_border_color",
"+	c #FFFFFF s active_hilight_2",
"@	c #B2B2B2",
"                            ",
"                            ",
"  ..........................",
"  ..........................",
"  ..++++++++++++++++++++++..",
"  ..++++++++++++++++++++++..",
"  ..++                  @@..",
"  ..++                  @@..",
"  ..++  ....      ....  @@..",
"  ..++  ....      ....  @@..",
"  ..++  ......  ......  @@..",
"  ..++  ......  ......  @@..",
"  ..++    ..........    @@..",
"  ..++    ..........    @@..",
"  ..++      ......      @@..",
"  ..++      ......      @@..",
"  ..++    ..........    @@..",
"  ..++    ..........    @@..",
"  ..++  ......  ......  @@..",
"  ..++  ......  ......  @@..",
"  ..++  ....      ....  @@..",
"  ..++  ....      ....  @@..",
"  ..++                  @@..",
"  ..++                  @@..",
"  ..++@@@@@@@@@@@@@@@@@@@@..",
"  ..++@@@@@@@@@@@@@@@@@@@@..",
"  ..........................",
"  .........................."};
