/* XPM */
static char * close_inactive_xpm[] = {
"28 28 4 1",
" 	c #000000 s active_border_color",
".	c #D8D8D8 s active_color_2",
"+	c #FFFFFF s active_hilight_2",
"@	c #B2B2B2",
"                          ..",
" ++++++++++++++++++++++++ ..",
" ++++++++++++++++++++++++ @@",
" ++++++++++++++++++++++++ @@",
" +++..................@@@ @@",
" +++..................@@@ @@",
" +++..    ......    ..@@@ @@",
" +++..    ......    ..@@@ @@",
" +++..      ..      ..@@@ @@",
" +++..      ..      ..@@@ @@",
" +++....          ....@@@ @@",
" +++....          ....@@@ @@",
" +++......      ......@@@ @@",
" +++......      ......@@@ @@",
" +++....          ....@@@ @@",
" +++....          ....@@@ @@",
" +++..      ..      ..@@@ @@",
" +++..      ..      ..@@@ @@",
" +++..    ......    ..@@@ @@",
" +++..    ......    ..@@@ @@",
" +++..................@@@ @@",
" +++..................@@@ @@",
" +++@@@@@@@@@@@@@@@@@@@@@ @@",
" +++@@@@@@@@@@@@@@@@@@@@@ @@",
" +++@@@@@@@@@@@@@@@@@@@@@ @@",
"                          @@",
"..@@@@@@@@@@@@@@@@@@@@@@@@@@",
"..@@@@@@@@@@@@@@@@@@@@@@@@@@"};
