/* XPM */
static char * hide_pressed_xpm[] = {
"14 14 4 1",
" 	c #D8D8D8",
".	c #000000",
"+	c #FFFFFF",
"@	c #B2B2B2",
"              ",
" .............",
" .+++++++++++.",
" .+         @.",
" .+         @.",
" .+         @.",
" .+         @.",
" .+         @.",
" .+         @.",
" .+ ....... @.",
" .+ ....... @.",
" .+         @.",
" .+@@@@@@@@@@.",
" ............."};
