/* XPM */
static char * right_inactive_xpm[] = {
"9 16 4 1",
" 	c #000000 s active_border_color",
".	c #FFFFFF s active_hilight_2",
"+	c #D8D8D8 s active_color_2",
"@	c #B2B2B2 s active_shadow_2",
" ..+++@@ ",
" ..+++@@ ",
" ..+++@@ ",
" ..+++@@ ",
" ..+++@@ ",
" ..+++@@ ",
" ..+++@@ ",
" ..+++@@ ",
" ..+++@@ ",
" ..+++@@ ",
" ..+++@@ ",
" ..+++@@ ",
" ..+++@@ ",
" ..+++@@ ",
" ..+++@@ ",
" ..+++@@ "};
