/* XPM */
static char * title_4_active_xpm[] = {
"36 48 5 1",
" 	c #000000 s active_border_color",
".	c #FFFFFF s active_hilight_2",
"+	c #D8D8D8 s active_color_2",
"@	c #B2B2B2",
"#	c #8CB754 s active_color_1",
"                                    ",
"....................................",
"....................................",
"++++++++++++++++++++++++++++++++++++",
"++++++++++++++++++++++++++++++++++++",
"@@@@@@@@@@@@@@@@++++++++++++++++++++",
"@@@@@@@@@@@@@@@@++++++++++++++++++++",
"              ..++++++++++++++++++++",
"############  ..++++@@@@++@@@@++++++",
"############  ..++++@@@@++@@@@++++++",
"############  ..++++@@..++@@..++++++",
"############  ..++++@@..++@@..++++++",
"############  ..++++++++++++++++++++",
"############  ..++++++++++++++++++++",
"############  ..++++@@@@++@@@@++++++",
"############  ..++++@@@@++@@@@++++++",
"############  ..++++@@..++@@..++++++",
"############  ..++++@@..++@@..++++++",
"############  ..++++++++++++++++++++",
"############  ..++++++++++++++++++++",
"############  ..++++@@@@++@@@@++++++",
"############  ..++++@@@@++@@@@++++++",
"############  ..++++@@..++@@..++++++",
"############  ..++++@@..++@@..++++++",
"############  ..++++++++++++++++++++",
"############  ..++++++++++++++++++++",
"############  ..++++@@@@++@@@@++++++",
"############  ..++++@@@@++@@@@++++++",
"############  ..++++@@..++@@..++++++",
"############  ..++++@@..++@@..++++++",
"############  ..++++++++++++++++++++",
"############  ..++++++++++++++++++++",
"############  ..++++++++++++++++++++",
"############  ..++++++++++++++++++++",
"############  ..++++@@@@++@@@@++++++",
"############  ..++++@@@@++@@@@++++++",
"############  ..++++@@..++@@..++++++",
"############  ..++++@@..++@@..++++++",
"############  ..++++++++++++++++++++",
"############  ..++++++++++++++++++++",
"              ..++++++++++++++++++++",
"................++++++++++++++++++++",
"................++++++++++++++++++++",
"++++++++++++++++++++++++++++++++++++",
"++++++++++++++++++++++++++++++++++++",
"@@@@@@@@@@@@@@@@@@@@@@@@@@@@@@@@@@@@",
"@@@@@@@@@@@@@@@@@@@@@@@@@@@@@@@@@@@@",
"                                    "};
