/* XPM */
static char * title_4_inactive_xpm[] = {
"36 48 5 1",
" 	c #000000",
".	c #FFFFFF",
"+	c #D8D8D8",
"@	c #B2B2B2",
"#	c #8CB754",
"                                    ",
"                                    ",
"....................................",
"....................................",
"++++++++++++++++++++++++++++++++++++",
"++++++++++++++++++++++++++++++++++++",
"@@@@@@@@@@@@@@@@++++++++++++++++++++",
"@@@@@@@@@@@@@@@@++++++++++++++++++++",
"              ..++++@@@@++@@@@++++++",
"              ..++++@@@@++@@@@++++++",
"############  ..++++@@..++@@..++++++",
"############  ..++++@@..++@@..++++++",
"############  ..++++++++++++++++++++",
"############  ..++++++++++++++++++++",
"############  ..++++@@@@++@@@@++++++",
"############  ..++++@@@@++@@@@++++++",
"############  ..++++@@..++@@..++++++",
"############  ..++++@@..++@@..++++++",
"############  ..++++++++++++++++++++",
"############  ..++++++++++++++++++++",
"############  ..++++@@@@++@@@@++++++",
"############  ..++++@@@@++@@@@++++++",
"############  ..++++@@..++@@..++++++",
"############  ..++++@@..++@@..++++++",
"############  ..++++++++++++++++++++",
"############  ..++++++++++++++++++++",
"############  ..++++@@@@++@@@@++++++",
"############  ..++++@@@@++@@@@++++++",
"############  ..++++@@..++@@..++++++",
"############  ..++++@@..++@@..++++++",
"############  ..++++++++++++++++++++",
"############  ..++++++++++++++++++++",
"############  ..++++++++++++++++++++",
"############  ..++++++++++++++++++++",
"############  ..++++@@@@++@@@@++++++",
"############  ..++++@@@@++@@@@++++++",
"############  ..++++@@..++@@..++++++",
"############  ..++++@@..++@@..++++++",
"              ..++++++++++++++++++++",
"              ..++++++++++++++++++++",
"................++++++++++++++++++++",
"................++++++++++++++++++++",
"++++++++++++++++++++++++++++++++++++",
"++++++++++++++++++++++++++++++++++++",
"@@@@@@@@@@@@@@@@@@@@@@@@@@@@@@@@@@@@",
"@@@@@@@@@@@@@@@@@@@@@@@@@@@@@@@@@@@@",
"                                    ",
"                                    "};
