/* XPM */
static char * top_left_inactive_xpm[] = {
"12 48 4 1",
" 	c #000000",
".	c #FFFFFF",
"+	c #D8D8D8",
"@	c #B2B2B2",
"            ",
" ...........",
" ...........",
" ..+++++++++",
" ..+++++++++",
" ..+++++++++",
" ..+++++++++",
" ..+++++++++",
" ..+++++++++",
" ..+++++++++",
" ..+++++++++",
" ..+++++++++",
" ..+++++++++",
" ..+++++++++",
" ..+++++++++",
" ..+++++++++",
" ..+++++++++",
" ..+++++++++",
" ..+++++++++",
" ..+++++++++",
" ..+++++++++",
" ..+++++++++",
" ..+++++++++",
" ..+++++++++",
" ..+++++++++",
" ..+++++++++",
" ..+++++++++",
" ..+++++++++",
" ..+++++++++",
" ..+++++++++",
" ..+++++++++",
" ..+++++++++",
" ..+++++++++",
" ..+++++++++",
" ..+++++++++",
" ..+++++++++",
" ..+++++++++",
" ..+++++++++",
" ..+++++++++",
" ..+++++++++",
" ..+++++++++",
" ..+++++++++",
" ..+++++++++",
" ..+++++++++",
" ..+++++++++",
" ..+++++@@@@",
" ..+++++@@@@",
" ..+++++    "};
