/* XPM */
static char * bottom_right_active_xpm[] = {
"23 7 5 1",
" 	c None",
".	c #000000",
"+	c #FFFFFF",
"@	c #BFBFBF",
"#	c #8F8F8F",
".......................",
"++.++++++++++++++++++. ",
"@#.+@@@@@@@@@@@@@@@@#. ",
"@#.+@@@@@@@@@@@@@@@@#. ",
"@#.+@@@@@@@@@@@@@@@@#. ",
"##.+#################. ",
"...................... "};
